# xmcd CD database file
#
# Track frame offsets:
#	150
#	14098
#	28728
#	48175
#	62280
#	73781
#	87755
#	103423
#	117878
#	136518
#	147621
#	162627
#
# Disc length: 2363 seconds
#
# Revision: 0
# Processed by: cddbd v1.5.2PL0 Copyright (c) Steve Scherf et al.
# Submitted via: CDex 1.51
#
DISCID=a909390c
DTITLE=Jimmy Witherspoon - Blues for Easy Livers
DYEAR=1996
DGENRE=Jazz
TTITLE0=Lotus Blossom
TTITLE1=Gee Baby, Ain't I Good To You
TTITLE2=Trav'lin Light
TTITLE3=P.S. I Love You
TTITLE4=I'll Always Be In Love With You
TTITLE5=Don't Worry 'Bout Me
TTITLE6=Easy Living
TTITLE7=Embraceable You
TTITLE8=Blues In The Night 
TTITLE9=Trouble In Mind
TTITLE10=How Long Will It Take To Be A Man
TTITLE11=I Got It Bad (And That Ain't Good)
EXTD=YEAR: 1996
EXTT0=
EXTT1=
EXTT2=
EXTT3=
EXTT4=
EXTT5=
EXTT6=
EXTT7=
EXTT8=
EXTT9=
EXTT10=
EXTT11=
PLAYORDER=
